PathFileType	3	(X/Y/Z)	F:\ViconData\AntennenMessung\Messung1\Session1\ID11.trc
DataRate	CameraRate	NumFrames	NumMarkers	Units	OrigDataRate	OrigDataStartFrame	OrigNumFrames
120.0	120.0	4	70	mm	120.0	804	1286	
Frame#	Time	Ashort			Along			Atop			A4			Bshort			Blong			Btop			B4			Cshort			Clong			Ctop			C4			Dshort			Dlong			Dtop			D4			Eshort			Elong			Etop			E4			Fshort			Flong			Ftop			F4			Gshort			Glong			Gtop			G4			Hshort			Hlong			Htop			H4			I1			I2			I3			I4			I5			WandAshort			WandAlong			WandAtop			WandA4			WandA15			WandBshort			WandB4			WandB5			WandBtop			WandBlong			WandCshort			WandClong			WandCtop			WandC4			WandC5			Acenter			Aantenna			Bcenter			Bantenna			Ccenter			Cantenna			Dcenter			Dantenna			Ecenter			Eantenna			Fcenter			Fantenna			Gcenter			Gantenna			Hcenter			Hantenna			Icenter			Iantenna			
		X1	Y1	Z1	X2	Y2	Z2	X3	Y3	Z3	X4	Y4	Z4	X5	Y5	Z5	X6	Y6	Z6	X7	Y7	Z7	X8	Y8	Z8	X9	Y9	Z9	X10	Y10	Z10	X11	Y11	Z11	X12	Y12	Z12	X13	Y13	Z13	X14	Y14	Z14	X15	Y15	Z15	X16	Y16	Z16	X17	Y17	Z17	X18	Y18	Z18	X19	Y19	Z19	X20	Y20	Z20	X21	Y21	Z21	X22	Y22	Z22	X23	Y23	Z23	X24	Y24	Z24	X25	Y25	Z25	X26	Y26	Z26	X27	Y27	Z27	X28	Y28	Z28	X29	Y29	Z29	X30	Y30	Z30	X31	Y31	Z31	X32	Y32	Z32	X33	Y33	Z33	X34	Y34	Z34	X35	Y35	Z35	X36	Y36	Z36	X37	Y37	Z37	X38	Y38	Z38	X39	Y39	Z39	X40	Y40	Z40	X41	Y41	Z41	X42	Y42	Z42	X43	Y43	Z43	X44	Y44	Z44	X45	Y45	Z45	X46	Y46	Z46	X47	Y47	Z47	X48	Y48	Z48	X49	Y49	Z49	X50	Y50	Z50	X51	Y51	Z51	X52	Y52	Z52	X53	Y53	Z53	X54	Y54	Z54	X55	Y55	Z55	X56	Y56	Z56	X57	Y57	Z57	X58	Y58	Z58	X59	Y59	Z59	X60	Y60	Z60	X61	Y61	Z61	X62	Y62	Z62	X63	Y63	Z63	X64	Y64	Z64	X65	Y65	Z65	X66	Y66	Z66	X67	Y67	Z67	X68	Y68	Z68	X69	Y69	Z69	X70	Y70	Z70	
804	6.6916667	-1038.2041	214.49409	-1644.2625	-1109.2899	203.90717	-1599.3893	-1063.7145	172.63338	-1625.5146	-1054.1935	262.17822	-1634.983	-1352.9733	234.86665	1003.7986	-1281.2507	227.12656	1052.3936	-1322.8964	194.04054	1020.8752	-1284.6776	287.81485	1052.8368	814.10608	187.55774	1209.5536	892.30475	178.65976	1179.0328	844.60516	145.35045	1198.3253	860.59113	292.70416	1167.2397	1115.7073	209.50594	-1401.5834	1056.1593	194.01151	-1460.2581	1095.1122	162.47336	-1424	1069.8522	238.60243	-1425.8716	-1204.5171	1685.9379	-1563.2491	-1129.108	1688.2734	-1606.0779	-1173.1492	1724.4432	-1581.9768	-1133.7531	1580.9966	-1603.7106	-1239.6909	1699.2363	1119.4797	-1309.3666	1698.786	1071.8989	-1270.4565	1736.3666	1096.887	-1244.6637	1593.7712	1106.7817	988.9046	1664.2767	1162.3032	957.45294	1700.3599	1183.7651	922.70032	1662.0284	1214.9192	939.78857	1659.3857	1159.9717	999.09222	1668.5123	-1579.4446	1058.8779	1670.1445	-1518.6484	1025.0114	1708.0109	-1551.121	1059.2552	1672.1342	-1585.4529	-26.366541	1173.1211	-954.36102	-111.40916	1171.6603	-962.95276	-64.777473	1209.6403	-959.31116	-60.638687	1170.6152	-989.70947	-68.903458	1175.3671	-910.4325																																														-1068.8795	209.92552	-1624.8983	-1074.2292	248.55159	-1624.2601	-1321.6598	231.48738	1025.0146	-1320.3805	270.23041	1029.2975	848.16144	183.68268	1196.2617	851.75916	222.46024	1194.1744	1088.7666	202.49594	-1428.1288	1082.6908	240.81641	-1432.082	-1171.8794	1686.9486	-1581.7856	-1170.5596	1647.9714	-1581.5872	-1271.0293	1699.0336	1098.079	-1271.6273	1660.0581	1099.3235	953.1264	1705.3234	1186.7174	972.91565	1733.4824	1168.3749	1026.5144	1669.2609	-1551.5587	1028.0261	1630.2926	-1551.9991	-64.252388	1172.4703	-958.18854	-63.701778	1133.4919	-957.01135
805	6.7	-1038.2058	214.46283	-1644.2292	-1109.2977	203.864	-1599.4054	-1063.8486	172.57799	-1625.4423	-1054.1907	262.17465	-1635.0023	-1352.9532	234.84509	1003.8231	-1281.3158	227.12968	1052.3717	-1322.778	194.13187	1020.8334	-1284.6266	287.92963	1052.7758	814.04413	187.55011	1209.6136	892.79346	179.17557	1178.6873	844.3291	145.56859	1198.3901	860.70087	292.72006	1167.3583	1115.7216	209.49646	-1401.5836	1056.2173	194.13554	-1460.3365	1095.0088	162.2524	-1423.8839	1069.8319	238.60074	-1425.879	-1204.5298	1685.9556	-1563.2494	-1129.1305	1688.2312	-1606.0425	-1173.1548	1724.4445	-1581.9791	-1133.752	1580.9724	-1603.6768	-1239.6677	1699.2097	1119.4608	-1309.3807	1698.8196	1071.9021	-1270.4443	1736.3451	1096.8778	-1244.719	1593.7518	1106.5281	988.87885	1664.2542	1162.2708	957.23975	1700.5946	1183.8323	922.67938	1662.1932	1214.9844	939.79016	1659.4032	1159.9192	999.09198	1668.502	-1579.4329	1058.8835	1670.1514	-1518.6473	1025.0156	1708.0054	-1551.1246	1059.2637	1672.1383	-1585.4562	-26.362204	1173.1276	-954.35577	-111.41001	1171.6653	-962.96082	-64.765938	1209.6439	-959.30396	-60.637798	1170.6113	-989.70685	-68.922127	1175.4039	-910.41632																																														-1069.0084	209.87056	-1624.808	-1074.353	248.49704	-1624.1511	-1321.6195	231.47043	1025.0577	-1320.4177	270.20477	1029.4402	847.63989	183.97739	1196.4198	850.98492	222.78265	1194.4294	1088.8168	202.55103	-1428.1488	1082.926	240.88947	-1432.2062	-1171.9025	1686.9402	-1581.767	-1170.6008	1647.9625	-1581.5465	-1271.0406	1699.0341	1098.058	-1271.6637	1660.0585	1099.2908	953.04285	1705.4149	1186.6924	972.80524	1733.5461	1168.2782	1026.5177	1669.2584	-1551.551	1028.0286	1630.2902	-1551.9797	-64.239838	1172.4763	-958.18817	-63.688107	1133.4977	-957.01801
806	6.7083333	-1038.1558	214.34109	-1644.2739	-1109.2943	203.86534	-1599.3711	-1063.7694	172.60587	-1625.4824	-1054.1707	262.1705	-1634.9496	-1352.8495	234.86491	1003.7513	-1281.3264	227.11627	1052.3999	-1322.6901	194.12413	1020.7941	-1284.5333	287.93454	1052.6198	814.01361	187.61771	1209.5078	892.677	179.35251	1178.608	844.38617	145.48399	1198.4072	860.60608	292.7222	1167.3944	1115.7628	209.77664	-1401.7285	1056.196	194.06276	-1460.2904	1095.0984	162.49794	-1423.938	1069.854	238.61861	-1425.8613	-1204.5234	1685.9636	-1563.2632	-1129.1072	1688.248	-1606.056	-1173.1461	1724.4232	-1581.9705	-1133.7452	1580.9835	-1603.7108	-1239.6941	1699.2617	1119.483	-1309.3357	1698.7732	1071.8889	-1270.4469	1736.343	1096.8796	-1244.7731	1593.5741	1106.6431	988.85382	1664.2354	1162.295	957.52911	1700.2894	1183.769	922.73218	1662.1602	1214.9785	939.72577	1659.3994	1159.9622	999.08069	1668.5049	-1579.4448	1058.8804	1670.1448	-1518.6365	1025.0134	1708.0146	-1551.1309	1059.262	1672.1399	-1585.4528	-26.372763	1173.1338	-954.3551	-111.44151	1171.7062	-962.96936	-64.779526	1209.6348	-959.30151	-60.640003	1170.6108	-989.71008	-68.906143	1175.3927	-910.4209																																														-1068.8723	209.81779	-1624.8855	-1074.1703	248.45131	-1624.2655	-1321.5376	231.47267	1025.0488	-1320.3427	270.20386	1029.4611	847.61749	184.0869	1196.3077	850.86603	222.89404	1194.1974	1088.7648	202.65446	-1428.271	1082.723	240.96129	-1432.4044	-1171.8999	1686.9517	-1581.7744	-1170.6035	1647.9738	-1581.5706	-1271.0076	1699.042	1098.0829	-1271.5935	1660.0667	1099.3403	953.12592	1705.3574	1186.7874	972.9245	1733.4962	1168.4238	1026.5077	1669.257	-1551.5551	1028.0101	1630.2882	-1551.9816	-64.268646	1172.4978	-958.1925	-63.732437	1133.5188	-957.0285
807	6.7166667	-1038.2302	214.44264	-1644.233	-1109.2723	203.94218	-1599.4061	-1063.8243	172.60669	-1625.4542	-1054.1919	262.17105	-1634.9775	-1352.907	235.09401	1003.7294	-1281.3344	227.18794	1052.3975	-1322.8635	194.10342	1020.8829	-1284.6105	287.85898	1052.7589	814.05511	187.61067	1209.5953	892.84552	179.19769	1178.6086	844.55548	145.37616	1198.3544	860.60272	292.74359	1167.3782	1115.7233	209.52063	-1401.5848	1056.2019	194.06754	-1460.2894	1095.035	162.23758	-1423.8989	1069.8788	238.60327	-1425.8604	-1204.5986	1686.0167	-1563.1191	-1129.1425	1688.2566	-1606.0612	-1173.1395	1724.4441	-1581.973	-1133.7439	1580.9855	-1603.7162	-1239.7102	1699.2793	1119.4847	-1309.3601	1698.7693	1071.8864	-1270.4186	1736.3113	1096.8691	-1244.6888	1593.7638	1106.5768	988.83258	1664.2141	1162.2863	957.10864	1700.6028	1183.7557	922.59528	1662.1692	1215.0488	939.78021	1659.4089	1159.9517	999.0744	1668.537	-1579.4843	1058.8959	1670.1594	-1518.6387	1025.0125	1708.0211	-1551.1216	1059.2562	1672.1362	-1585.4545	-26.361969	1173.1161	-954.35266	-111.45261	1171.7209	-962.96899	-64.781868	1209.6404	-959.30426	-60.634388	1170.6152	-989.70679	-68.858154	1175.3857	-910.3941																																														-1068.9534	209.90154	-1624.8468	-1074.2665	248.53284	-1624.2178	-1321.5519	231.63046	1025.0502	-1320.198	270.3688	1029.3519	847.8703	183.99998	1196.2965	851.20044	222.80252	1194.2291	1088.7782	202.52509	-1428.16	1082.8254	240.85431	-1432.2141	-1171.891	1686.9875	-1581.733	-1170.5917	1648.01	-1581.4832	-1270.9917	1699.0502	1098.1071	-1271.5914	1660.0763	1099.402	952.92407	1705.4025	1186.5876	972.64062	1733.5079	1168.0853	1026.5189	1669.2814	-1551.5696	1028.0343	1630.3134	-1552.0204	-64.285362	1172.4943	-958.19275	-63.764355	1133.5153	-957.02655
